<svg width="124" height="28" viewBox="0 0 124 28" fill="none" xmlns="http://www.w3.org/2000/svg">
<path d="M112.552 27.9908C110.826 27.9908 109.489 27.51 108.541 26.5486C107.617 25.5871 107.155 24.2531 107.155 22.5466V1.05815H109.744V22.3302C109.744 23.4599 110.011 24.3252 110.546 24.9262C111.081 25.503 111.883 25.7915 112.953 25.7915C113.633 25.7915 114.217 25.6833 114.703 25.467L114.885 27.5942C114.132 27.8586 113.354 27.9908 112.552 27.9908Z" fill="white"/>
<path d="M102.575 27.9908C100.849 27.9908 99.5122 27.51 98.5641 26.5486C97.6403 25.5871 97.1784 24.2531 97.1784 22.5466V1.05815H99.7674V22.3302C99.7674 23.4599 100.035 24.3252 100.57 24.9262C101.104 25.503 101.907 25.7915 102.976 25.7915C103.657 25.7915 104.24 25.6833 104.727 25.467L104.909 27.5942C104.155 27.8586 103.377 27.9908 102.575 27.9908Z" fill="white"/>
<path d="M88.6621 8.84617H91.2511V27.8108H88.6621V8.84617Z" fill="white"/>
<path d="M75.4337 18.2921L70.9121 22.4023V27.8105H68.3231V1.05815H70.9121V19.1935L82.362 8.84589H85.5709L77.3663 16.5976L86.3367 27.8105H83.1642L75.4337 18.2921Z" fill="white"/>
<path d="M56.8998 27.9906C55.344 27.9906 53.8489 27.7743 52.4147 27.3416C51.0047 26.8849 49.8986 26.3201 49.0964 25.6471L50.2632 23.628C51.0655 24.253 52.0743 24.7697 53.2898 25.1784C54.5053 25.5629 55.7694 25.7552 57.0821 25.7552C58.8325 25.7552 60.1209 25.4908 60.9474 24.962C61.7983 24.4092 62.2237 23.64 62.2237 22.6546C62.2237 21.9575 61.9927 21.4167 61.5309 21.0321C61.069 20.6235 60.4855 20.323 59.7805 20.1307C59.0756 19.9144 58.1396 19.7101 56.9728 19.5178C55.4169 19.2294 54.165 18.9409 53.2169 18.6525C52.2688 18.34 51.4544 17.8233 50.7737 17.1022C50.1174 16.3811 49.7892 15.3836 49.7892 14.1097C49.7892 12.5233 50.4577 11.2253 51.7948 10.2158C53.1318 9.20626 54.9915 8.7015 57.3739 8.7015C58.6137 8.7015 59.8535 8.86976 61.0933 9.20626C62.3331 9.51873 63.3541 9.93937 64.1563 10.4682L63.0259 12.5233C61.4458 11.4416 59.5618 10.9008 57.3739 10.9008C55.7208 10.9008 54.4688 11.1893 53.618 11.7661C52.7915 12.343 52.3782 13.1001 52.3782 14.0376C52.3782 14.7586 52.6091 15.3355 53.071 15.7682C53.5572 16.2008 54.1528 16.5253 54.8578 16.7416C55.5628 16.9339 56.5352 17.1382 57.775 17.3546C59.3065 17.643 60.5342 17.9314 61.4579 18.2199C62.3817 18.5083 63.1718 19.001 63.8281 19.6981C64.4845 20.3951 64.8127 21.3566 64.8127 22.5824C64.8127 24.2409 64.1077 25.5629 62.6977 26.5484C61.3121 27.5099 59.3794 27.9906 56.8998 27.9906Z" fill="white"/>
<path d="M93.0785 2.94496C93.0785 4.57142 91.745 5.88992 90.1 5.88992C88.455 5.88992 87.1215 4.57142 87.1215 2.94496C87.1215 1.3185 88.455 0 90.1 0C91.745 0 93.0785 1.3185 93.0785 2.94496Z" fill="#2A32ED"/>
<path d="M124 25.0547C124 26.6812 122.666 27.9997 121.021 27.9997C119.377 27.9997 118.043 26.6812 118.043 25.0547C118.043 23.4283 119.377 22.1098 121.021 22.1098C122.666 22.1098 124 23.4283 124 25.0547Z" fill="#2A32ED"/>
<path d="M45.3409 0.958923V27.7113H39.9076V25.4759C38.4976 27.1584 36.4556 27.9997 33.7815 27.9997C31.934 27.9997 30.2566 27.5911 28.7494 26.7739C27.2665 25.9566 26.0996 24.7909 25.2487 23.2766C24.3979 21.7623 23.9725 20.0077 23.9725 18.0126C23.9725 16.0176 24.3979 14.263 25.2487 12.7487C26.0996 11.2344 27.2665 10.0687 28.7494 9.25143C30.2566 8.4342 31.934 8.02558 33.7815 8.02558C36.2854 8.02558 38.2424 8.80676 39.6524 10.3691V0.958923H45.3409ZM34.7661 23.3848C36.2004 23.3848 37.3915 22.904 38.3396 21.9426C39.2877 20.9571 39.7617 19.6471 39.7617 18.0126C39.7617 16.3782 39.2877 15.0802 38.3396 14.1188C37.3915 13.1333 36.2004 12.6405 34.7661 12.6405C33.3075 12.6405 32.1041 13.1333 31.156 14.1188C30.208 15.0802 29.7339 16.3782 29.7339 18.0126C29.7339 19.6471 30.208 20.9571 31.156 21.9426C32.1041 22.904 33.3075 23.3848 34.7661 23.3848Z" fill="white"/>
<path d="M21.3684 8.3143V27.7116H15.9351V25.4762C14.5252 27.1587 12.4831 28 9.80904 28C7.96149 28 6.2841 27.5914 4.77689 26.7741C3.29399 25.9569 2.12711 24.7912 1.27627 23.2769C0.425423 21.7626 0 20.0079 0 18.0129C0 16.0179 0.425423 14.2633 1.27627 12.749C2.12711 11.2347 3.29399 10.0689 4.77689 9.25171C6.2841 8.43448 7.96149 8.02586 9.80904 8.02586C12.313 8.02586 14.2699 8.80704 15.6799 10.3694V8.3143H21.3684ZM10.7936 23.385C12.2279 23.385 13.4191 22.9043 14.3671 21.9429C15.3152 20.9574 15.7893 19.6474 15.7893 18.0129C15.7893 16.3785 15.3152 15.0805 14.3671 14.1191C13.4191 13.1336 12.2279 12.6408 10.7936 12.6408C9.33499 12.6408 8.13165 13.1336 7.18357 14.1191C6.23548 15.0805 5.76144 16.3785 5.76144 18.0129C5.76144 19.6474 6.23548 20.9574 7.18357 21.9429C8.13165 22.9043 9.33499 23.385 10.7936 23.385Z" fill="white"/>
</svg>
