<svg width="16" height="14" viewBox="0 0 16 14" fill="none" xmlns="http://www.w3.org/2000/svg">
<path d="M0.352529 6.64016L4.03256 7.90006L12.7703 2.51479C12.8972 2.43702 13.0269 2.61042 12.9178 2.71181L6.30286 8.85003L6.05715 12.2864C6.05313 12.344 6.06657 12.4014 6.09568 12.4511C6.12479 12.5008 6.16819 12.5404 6.22013 12.5646C6.27208 12.5889 6.3301 12.5966 6.38652 12.5868C6.44293 12.5771 6.49506 12.5502 6.53601 12.5099L8.5726 10.4907L12.2961 13.332C12.6972 13.6385 13.2783 13.4224 13.3863 12.927L15.9789 1.05959C16.1269 0.382691 15.4687 -0.188788 14.8269 0.0589296L0.334243 5.6539C-0.120618 5.8296 -0.108046 6.48231 0.352529 6.64016Z" fill="white"/>
</svg>
